<svg width="67" height="78" viewBox="0 0 67 78" fill="none" xmlns="http://www.w3.org/2000/svg">
<path d="M33.4577 0.5L66.4154 19.5667V57.7L33.4577 76.7667L0.5 57.7V19.5667L33.4577 0.5Z" stroke="#1C1916" stroke-linejoin="round"/>
<path d="M33.4577 0.5L66.4154 19.5667V57.7L33.4577 76.7667L0.5 57.7V19.5667L33.4577 0.5Z" fill="#FAF8F4" stroke="#1C1916" stroke-linejoin="round"/>
<path opacity="0.5" d="M33.4577 16.1L52.5385 27.3666V49.9L33.4577 61.1666L14.377 49.9V27.3666L33.4577 16.1Z" stroke="#1C1916" stroke-width="0.5" stroke-linejoin="round"/>
<path opacity="0.4" d="M33.4575 0.5V16.1" stroke="#1C1916" stroke-width="0.5"/>
<path opacity="0.4" d="M66.4155 19.5667L52.5386 27.3667" stroke="#1C1916" stroke-width="0.5"/>
<path opacity="0.4" d="M66.4155 57.7L52.5386 49.9" stroke="#1C1916" stroke-width="0.5"/>
<path opacity="0.4" d="M33.4575 76.7666V61.1666" stroke="#1C1916" stroke-width="0.5"/>
<path opacity="0.4" d="M0.5 57.7L14.3769 49.9" stroke="#1C1916" stroke-width="0.5"/>
<path opacity="0.4" d="M0.5 19.5667L14.3769 27.3667" stroke="#1C1916" stroke-width="0.5"/>
<path opacity="0.25" d="M33.4575 16.1V38.6333" stroke="#1C1916" stroke-width="0.4"/>
<path opacity="0.25" d="M52.5383 27.3667L33.4575 38.6334" stroke="#1C1916" stroke-width="0.4"/>
<path opacity="0.25" d="M52.5383 49.9L33.4575 38.6333" stroke="#1C1916" stroke-width="0.4"/>
<path opacity="0.25" d="M33.4575 61.1666V38.6333" stroke="#1C1916" stroke-width="0.4"/>
<path opacity="0.25" d="M14.377 49.9L33.4577 38.6333" stroke="#1C1916" stroke-width="0.4"/>
<path opacity="0.25" d="M14.377 27.3667L33.4577 38.6334" stroke="#1C1916" stroke-width="0.4"/>
<path opacity="0.15" d="M33.4575 38.6333V16.1L52.5383 27.3666L33.4575 38.6333Z" fill="#B86B2E"/>
<path opacity="0.08" d="M33.4575 38.6333L52.5383 49.9L33.4575 61.1666V38.6333Z" fill="#B86B2E"/>
<path opacity="0.12" d="M33.4577 38.6333L14.377 27.3666L33.4577 16.1V38.6333Z" fill="#C9B99A"/>
<path opacity="0.07" d="M33.4577 38.6333L14.377 49.9L33.4577 61.1666V38.6333Z" fill="#C9B99A"/>
<path d="M33.4578 40.3667C34.4158 40.3667 35.1924 39.5907 35.1924 38.6334C35.1924 37.6761 34.4158 36.9 33.4578 36.9C32.4998 36.9 31.7231 37.6761 31.7231 38.6334C31.7231 39.5907 32.4998 40.3667 33.4578 40.3667Z" fill="#B86B2E"/>
</svg>
