<svg width="296" height="104" viewBox="0 0 296 104" fill="none" xmlns="http://www.w3.org/2000/svg">
<path d="M47.3346 13.8667L80.2923 32.9334V71.0667L47.3346 90.1334L14.377 71.0667V32.9334L47.3346 13.8667Z" stroke="#1C1916" stroke-linejoin="round"/>
<path opacity="0.5" d="M47.3347 29.4667L66.4154 40.7333V63.2667L47.3347 74.5333L28.2539 63.2667V40.7333L47.3347 29.4667Z" stroke="#1C1916" stroke-width="0.5" stroke-linejoin="round"/>
<path opacity="0.4" d="M47.3347 13.8667V29.4667" stroke="#1C1916" stroke-width="0.5"/>
<path opacity="0.4" d="M80.2924 32.9333L66.4155 40.7333" stroke="#1C1916" stroke-width="0.5"/>
<path opacity="0.4" d="M80.2924 71.0667L66.4155 63.2667" stroke="#1C1916" stroke-width="0.5"/>
<path opacity="0.4" d="M47.3347 90.1333V74.5333" stroke="#1C1916" stroke-width="0.5"/>
<path opacity="0.4" d="M14.377 71.0667L28.2539 63.2667" stroke="#1C1916" stroke-width="0.5"/>
<path opacity="0.4" d="M14.377 32.9333L28.2539 40.7333" stroke="#1C1916" stroke-width="0.5"/>
<path opacity="0.25" d="M47.3347 29.4667V52" stroke="#1C1916" stroke-width="0.4"/>
<path opacity="0.25" d="M66.4155 40.7334L47.3347 52.0001" stroke="#1C1916" stroke-width="0.4"/>
<path opacity="0.25" d="M66.4155 63.2667L47.3347 52" stroke="#1C1916" stroke-width="0.4"/>
<path opacity="0.25" d="M47.3347 74.5333V52" stroke="#1C1916" stroke-width="0.4"/>
<path opacity="0.25" d="M28.2539 63.2667L47.3347 52" stroke="#1C1916" stroke-width="0.4"/>
<path opacity="0.25" d="M28.2539 40.7334L47.3347 52.0001" stroke="#1C1916" stroke-width="0.4"/>
<path opacity="0.15" d="M47.3347 52V29.4667L66.4155 40.7333L47.3347 52Z" fill="#B86B2E"/>
<path opacity="0.08" d="M47.3347 52L66.4155 63.2667L47.3347 74.5333V52Z" fill="#B86B2E"/>
<path opacity="0.12" d="M47.3347 52L28.2539 40.7333L47.3347 29.4667V52Z" fill="#C9B99A"/>
<path opacity="0.07" d="M47.3347 52L28.2539 63.2667L47.3347 74.5333V52Z" fill="#C9B99A"/>
<path d="M47.3347 53.7334C48.2927 53.7334 49.0693 52.9574 49.0693 52.0001C49.0693 51.0428 48.2927 50.2667 47.3347 50.2667C46.3767 50.2667 45.6001 51.0428 45.6001 52.0001C45.6001 52.9574 46.3767 53.7334 47.3347 53.7334Z" fill="#B86B2E"/>
<path d="M108.284 73H102.693L115.256 38.0909H121.341L133.903 73H128.312L118.443 44.4318H118.17L108.284 73ZM109.222 59.3295H127.358V63.7614H109.222V59.3295ZM143.632 38.0909V73H138.536V38.0909H143.632ZM161.517 73.5284C158.983 73.5284 156.801 72.9545 154.972 71.8068C153.153 70.6477 151.756 69.0511 150.778 67.017C149.801 64.983 149.312 62.6534 149.312 60.0284C149.312 57.3693 149.812 55.0227 150.812 52.9886C151.812 50.9432 153.222 49.3466 155.04 48.1989C156.858 47.0511 159 46.4773 161.466 46.4773C163.455 46.4773 165.227 46.8466 166.784 47.5852C168.341 48.3125 169.597 49.3352 170.551 50.6534C171.517 51.9716 172.091 53.5114 172.273 55.2727H167.312C167.04 54.0455 166.415 52.9886 165.438 52.1023C164.472 51.2159 163.176 50.7727 161.551 50.7727C160.131 50.7727 158.886 51.1477 157.818 51.8977C156.761 52.6364 155.938 53.6932 155.347 55.0682C154.756 56.4318 154.46 58.0455 154.46 59.9091C154.46 61.8182 154.75 63.4659 155.33 64.8523C155.909 66.2386 156.727 67.3125 157.784 68.0739C158.852 68.8352 160.108 69.2159 161.551 69.2159C162.517 69.2159 163.392 69.0398 164.176 68.6875C164.972 68.3239 165.636 67.8068 166.17 67.1364C166.716 66.4659 167.097 65.6591 167.312 64.7159H172.273C172.091 66.4091 171.54 67.9205 170.619 69.25C169.699 70.5795 168.466 71.625 166.92 72.3864C165.386 73.1477 163.585 73.5284 161.517 73.5284ZM188.751 73.5284C186.297 73.5284 184.155 72.9659 182.325 71.8409C180.496 70.7159 179.075 69.142 178.064 67.1193C177.053 65.0966 176.547 62.733 176.547 60.0284C176.547 57.3125 177.053 54.9375 178.064 52.9034C179.075 50.8693 180.496 49.2898 182.325 48.1648C184.155 47.0398 186.297 46.4773 188.751 46.4773C191.206 46.4773 193.348 47.0398 195.178 48.1648C197.007 49.2898 198.428 50.8693 199.439 52.9034C200.45 54.9375 200.956 57.3125 200.956 60.0284C200.956 62.733 200.45 65.0966 199.439 67.1193C198.428 69.142 197.007 70.7159 195.178 71.8409C193.348 72.9659 191.206 73.5284 188.751 73.5284ZM188.768 69.25C190.359 69.25 191.678 68.8295 192.723 67.9886C193.768 67.1477 194.541 66.0284 195.041 64.6307C195.553 63.233 195.808 61.6932 195.808 60.0114C195.808 58.3409 195.553 56.8068 195.041 55.4091C194.541 54 193.768 52.8693 192.723 52.017C191.678 51.1648 190.359 50.7386 188.768 50.7386C187.166 50.7386 185.837 51.1648 184.78 52.017C183.734 52.8693 182.956 54 182.445 55.4091C181.945 56.8068 181.695 58.3409 181.695 60.0114C181.695 61.6932 181.945 63.233 182.445 64.6307C182.956 66.0284 183.734 67.1477 184.78 67.9886C185.837 68.8295 187.166 69.25 188.768 69.25Z" fill="#1C1916"/>
<path d="M207.054 73V38.0909H228.702V42.625H212.321V53.2614H227.151V57.7784H212.321V73H207.054ZM234.77 73V46.8182H239.866V73H234.77ZM237.344 42.7784C236.457 42.7784 235.696 42.483 235.06 41.892C234.435 41.2898 234.122 40.5739 234.122 39.7443C234.122 38.9034 234.435 38.1875 235.06 37.5966C235.696 36.9943 236.457 36.6932 237.344 36.6932C238.23 36.6932 238.986 36.9943 239.611 37.5966C240.247 38.1875 240.565 38.9034 240.565 39.7443C240.565 40.5739 240.247 41.2898 239.611 41.892C238.986 42.483 238.23 42.7784 237.344 42.7784ZM258.945 46.8182V50.9091H244.643V46.8182H258.945ZM248.479 40.5455H253.575V65.3125C253.575 66.3011 253.723 67.0455 254.018 67.5455C254.314 68.0341 254.695 68.3693 255.161 68.5511C255.638 68.7216 256.155 68.8068 256.712 68.8068C257.121 68.8068 257.479 68.7784 257.786 68.7216C258.092 68.6648 258.331 68.6193 258.501 68.5852L259.422 72.7955C259.126 72.9091 258.706 73.0227 258.161 73.1364C257.615 73.2614 256.933 73.3295 256.115 73.3409C254.774 73.3636 253.524 73.125 252.365 72.625C251.206 72.125 250.268 71.3523 249.553 70.3068C248.837 69.2614 248.479 67.9489 248.479 66.3693V40.5455Z" fill="#B86B2E"/>
</svg>
