<svg width="296" height="104" viewBox="0 0 296 104" fill="none" xmlns="http://www.w3.org/2000/svg">
<path d="M47.3346 13.8667L80.2923 32.9334V71.0667L47.3346 90.1334L14.377 71.0667V32.9334L47.3346 13.8667Z" stroke="#1C1916" stroke-linejoin="round"/>
<path opacity="0.5" d="M47.3347 29.4667L66.4154 40.7333V63.2667L47.3347 74.5333L28.2539 63.2667V40.7333L47.3347 29.4667Z" stroke="#1C1916" stroke-width="0.5" stroke-linejoin="round"/>
<path opacity="0.4" d="M47.3347 13.8667V29.4667" stroke="#1C1916" stroke-width="0.5"/>
<path opacity="0.4" d="M80.2924 32.9333L66.4155 40.7333" stroke="#1C1916" stroke-width="0.5"/>
<path opacity="0.4" d="M80.2924 71.0667L66.4155 63.2667" stroke="#1C1916" stroke-width="0.5"/>
<path opacity="0.4" d="M47.3347 90.1333V74.5333" stroke="#1C1916" stroke-width="0.5"/>
<path opacity="0.4" d="M14.377 71.0667L28.2539 63.2667" stroke="#1C1916" stroke-width="0.5"/>
<path opacity="0.4" d="M14.377 32.9333L28.2539 40.7333" stroke="#1C1916" stroke-width="0.5"/>
<path opacity="0.25" d="M47.3347 29.4667V52" stroke="#1C1916" stroke-width="0.4"/>
<path opacity="0.25" d="M66.4155 40.7334L47.3347 52.0001" stroke="#1C1916" stroke-width="0.4"/>
<path opacity="0.25" d="M66.4155 63.2667L47.3347 52" stroke="#1C1916" stroke-width="0.4"/>
<path opacity="0.25" d="M47.3347 74.5333V52" stroke="#1C1916" stroke-width="0.4"/>
<path opacity="0.25" d="M28.2539 63.2667L47.3347 52" stroke="#1C1916" stroke-width="0.4"/>
<path opacity="0.25" d="M28.2539 40.7334L47.3347 52.0001" stroke="#1C1916" stroke-width="0.4"/>
<path opacity="0.15" d="M47.3347 52V29.4667L66.4155 40.7333L47.3347 52Z" fill="#B86B2E"/>
<path opacity="0.08" d="M47.3347 52L66.4155 63.2667L47.3347 74.5333V52Z" fill="#B86B2E"/>
<path opacity="0.12" d="M47.3347 52L28.2539 40.7333L47.3347 29.4667V52Z" fill="#C9B99A"/>
<path opacity="0.07" d="M47.3347 52L28.2539 63.2667L47.3347 74.5333V52Z" fill="#C9B99A"/>
<path d="M47.3347 53.7334C48.2927 53.7334 49.0693 52.9574 49.0693 52.0001C49.0693 51.0428 48.2927 50.2667 47.3347 50.2667C46.3767 50.2667 45.6001 51.0428 45.6001 52.0001C45.6001 52.9574 46.3767 53.7334 47.3347 53.7334Z" fill="#B86B2E"/>
<path d="M108.284 65H102.693L115.256 30.0909H121.341L133.903 65H128.312L118.443 36.4318H118.17L108.284 65ZM109.222 51.3295H127.358V55.7614H109.222V51.3295ZM143.632 30.0909V65H138.536V30.0909H143.632ZM161.517 65.5284C158.983 65.5284 156.801 64.9545 154.972 63.8068C153.153 62.6477 151.756 61.0511 150.778 59.017C149.801 56.983 149.312 54.6534 149.312 52.0284C149.312 49.3693 149.812 47.0227 150.812 44.9886C151.812 42.9432 153.222 41.3466 155.04 40.1989C156.858 39.0511 159 38.4773 161.466 38.4773C163.455 38.4773 165.227 38.8466 166.784 39.5852C168.341 40.3125 169.597 41.3352 170.551 42.6534C171.517 43.9716 172.091 45.5114 172.273 47.2727H167.312C167.04 46.0455 166.415 44.9886 165.438 44.1023C164.472 43.2159 163.176 42.7727 161.551 42.7727C160.131 42.7727 158.886 43.1477 157.818 43.8977C156.761 44.6364 155.938 45.6932 155.347 47.0682C154.756 48.4318 154.46 50.0455 154.46 51.9091C154.46 53.8182 154.75 55.4659 155.33 56.8523C155.909 58.2386 156.727 59.3125 157.784 60.0739C158.852 60.8352 160.108 61.2159 161.551 61.2159C162.517 61.2159 163.392 61.0398 164.176 60.6875C164.972 60.3239 165.636 59.8068 166.17 59.1364C166.716 58.4659 167.097 57.6591 167.312 56.7159H172.273C172.091 58.4091 171.54 59.9205 170.619 61.25C169.699 62.5795 168.466 63.625 166.92 64.3864C165.386 65.1477 163.585 65.5284 161.517 65.5284ZM188.751 65.5284C186.297 65.5284 184.155 64.9659 182.325 63.8409C180.496 62.7159 179.075 61.142 178.064 59.1193C177.053 57.0966 176.547 54.733 176.547 52.0284C176.547 49.3125 177.053 46.9375 178.064 44.9034C179.075 42.8693 180.496 41.2898 182.325 40.1648C184.155 39.0398 186.297 38.4773 188.751 38.4773C191.206 38.4773 193.348 39.0398 195.178 40.1648C197.007 41.2898 198.428 42.8693 199.439 44.9034C200.45 46.9375 200.956 49.3125 200.956 52.0284C200.956 54.733 200.45 57.0966 199.439 59.1193C198.428 61.142 197.007 62.7159 195.178 63.8409C193.348 64.9659 191.206 65.5284 188.751 65.5284ZM188.768 61.25C190.359 61.25 191.678 60.8295 192.723 59.9886C193.768 59.1477 194.541 58.0284 195.041 56.6307C195.553 55.233 195.808 53.6932 195.808 52.0114C195.808 50.3409 195.553 48.8068 195.041 47.4091C194.541 46 193.768 44.8693 192.723 44.017C191.678 43.1648 190.359 42.7386 188.768 42.7386C187.166 42.7386 185.837 43.1648 184.78 44.017C183.734 44.8693 182.956 46 182.445 47.4091C181.945 48.8068 181.695 50.3409 181.695 52.0114C181.695 53.6932 181.945 55.233 182.445 56.6307C182.956 58.0284 183.734 59.1477 184.78 59.9886C185.837 60.8295 187.166 61.25 188.768 61.25Z" fill="#1C1916"/>
<path d="M207.054 65V30.0909H228.702V34.625H212.321V45.2614H227.151V49.7784H212.321V65H207.054ZM234.77 65V38.8182H239.866V65H234.77ZM237.344 34.7784C236.457 34.7784 235.696 34.483 235.06 33.892C234.435 33.2898 234.122 32.5739 234.122 31.7443C234.122 30.9034 234.435 30.1875 235.06 29.5966C235.696 28.9943 236.457 28.6932 237.344 28.6932C238.23 28.6932 238.986 28.9943 239.611 29.5966C240.247 30.1875 240.565 30.9034 240.565 31.7443C240.565 32.5739 240.247 33.2898 239.611 33.892C238.986 34.483 238.23 34.7784 237.344 34.7784ZM258.945 38.8182V42.9091H244.643V38.8182H258.945ZM248.479 32.5455H253.575V57.3125C253.575 58.3011 253.723 59.0455 254.018 59.5455C254.314 60.0341 254.695 60.3693 255.161 60.5511C255.638 60.7216 256.155 60.8068 256.712 60.8068C257.121 60.8068 257.479 60.7784 257.786 60.7216C258.092 60.6648 258.331 60.6193 258.501 60.5852L259.422 64.7955C259.126 64.9091 258.706 65.0227 258.161 65.1364C257.615 65.2614 256.933 65.3295 256.115 65.3409C254.774 65.3636 253.524 65.125 252.365 64.625C251.206 64.125 250.268 63.3523 249.553 62.3068C248.837 61.2614 248.479 59.9489 248.479 58.3693V32.5455Z" fill="#B86B2E"/>
<path d="M101.5 70H281.5" stroke="#B86B2E" stroke-width="0.8"/>
<path d="M102.459 87V78.2727H105.655C106.274 78.2727 106.787 78.375 107.193 78.5795C107.599 78.7812 107.903 79.0554 108.105 79.402C108.307 79.7457 108.408 80.1335 108.408 80.5653C108.408 80.929 108.341 81.2358 108.207 81.4858C108.074 81.733 107.895 81.9318 107.67 82.0824C107.449 82.2301 107.205 82.3381 106.938 82.4062V82.4915C107.227 82.5057 107.51 82.5994 107.786 82.7727C108.064 82.9432 108.294 83.1861 108.476 83.5014C108.658 83.8168 108.749 84.2003 108.749 84.652C108.749 85.098 108.643 85.4986 108.433 85.8537C108.226 86.206 107.905 86.4858 107.47 86.6932C107.036 86.8977 106.48 87 105.804 87H102.459ZM103.776 85.8707H105.676C106.307 85.8707 106.759 85.7486 107.031 85.5043C107.304 85.2599 107.44 84.9545 107.44 84.5881C107.44 84.3125 107.371 84.0597 107.232 83.8295C107.092 83.5994 106.893 83.4162 106.635 83.2798C106.379 83.1435 106.075 83.0753 105.723 83.0753H103.776V85.8707ZM103.776 82.0483H105.54C105.835 82.0483 106.101 81.9915 106.337 81.8778C106.575 81.7642 106.764 81.6051 106.903 81.4006C107.045 81.1932 107.116 80.9489 107.116 80.6676C107.116 80.3068 106.99 80.0043 106.737 79.7599C106.484 79.5156 106.097 79.3935 105.574 79.3935H103.776V82.0483ZM111.013 89.4545C110.823 89.4545 110.65 89.4389 110.494 89.4077C110.337 89.3793 110.221 89.348 110.144 89.3139L110.451 88.2699C110.684 88.3324 110.891 88.3594 111.073 88.3509C111.255 88.3423 111.415 88.2741 111.555 88.1463C111.697 88.0185 111.822 87.8097 111.93 87.5199L112.087 87.0852L109.692 80.4545H111.056L112.714 85.5341H112.782L114.44 80.4545H115.808L113.11 87.8736C112.985 88.2145 112.826 88.5028 112.633 88.7386C112.44 88.9773 112.21 89.1563 111.942 89.2756C111.675 89.3949 111.366 89.4545 111.013 89.4545ZM121.02 87H119.623L122.763 78.2727H124.284L127.425 87H126.027L123.56 79.858H123.492L121.02 87ZM121.255 83.5824H125.789V84.6903H121.255V83.5824ZM129.857 78.2727V87H128.583V78.2727H129.857ZM134.328 87.1321C133.695 87.1321 133.15 86.9886 132.692 86.7017C132.238 86.4119 131.888 86.0128 131.644 85.5043C131.4 84.9957 131.277 84.4134 131.277 83.7571C131.277 83.0923 131.402 82.5057 131.652 81.9972C131.902 81.4858 132.255 81.0866 132.709 80.7997C133.164 80.5128 133.699 80.3693 134.316 80.3693C134.813 80.3693 135.256 80.4616 135.645 80.6463C136.034 80.8281 136.348 81.0838 136.587 81.4134C136.828 81.7429 136.972 82.1278 137.017 82.5682H135.777C135.709 82.2614 135.553 81.9972 135.309 81.7756C135.067 81.554 134.743 81.4432 134.337 81.4432C133.982 81.4432 133.671 81.5369 133.404 81.7244C133.14 81.9091 132.934 82.1733 132.786 82.517C132.638 82.858 132.564 83.2614 132.564 83.7273C132.564 84.2045 132.637 84.6165 132.782 84.9631C132.926 85.3097 133.131 85.5781 133.395 85.7685C133.662 85.9588 133.976 86.054 134.337 86.054C134.578 86.054 134.797 86.0099 134.993 85.9219C135.192 85.831 135.358 85.7017 135.492 85.5341C135.628 85.3665 135.723 85.1648 135.777 84.929H137.017C136.972 85.3523 136.834 85.7301 136.604 86.0625C136.374 86.3949 136.066 86.6562 135.679 86.8466C135.296 87.0369 134.846 87.1321 134.328 87.1321ZM141.137 87.1321C140.523 87.1321 139.988 86.9915 139.531 86.7102C139.073 86.429 138.718 86.0355 138.465 85.5298C138.212 85.0241 138.086 84.4332 138.086 83.7571C138.086 83.0781 138.212 82.4844 138.465 81.9759C138.718 81.4673 139.073 81.0724 139.531 80.7912C139.988 80.5099 140.523 80.3693 141.137 80.3693C141.751 80.3693 142.286 80.5099 142.744 80.7912C143.201 81.0724 143.556 81.4673 143.809 81.9759C144.062 82.4844 144.188 83.0781 144.188 83.7571C144.188 84.4332 144.062 85.0241 143.809 85.5298C143.556 86.0355 143.201 86.429 142.744 86.7102C142.286 86.9915 141.751 87.1321 141.137 87.1321ZM141.141 86.0625C141.539 86.0625 141.869 85.9574 142.13 85.7472C142.391 85.5369 142.585 85.2571 142.71 84.9077C142.837 84.5582 142.901 84.1733 142.901 83.7528C142.901 83.3352 142.837 82.9517 142.71 82.6023C142.585 82.25 142.391 81.9673 142.13 81.7543C141.869 81.5412 141.539 81.4347 141.141 81.4347C140.741 81.4347 140.408 81.5412 140.144 81.7543C139.883 81.9673 139.688 82.25 139.56 82.6023C139.435 82.9517 139.373 83.3352 139.373 83.7528C139.373 84.1733 139.435 84.5582 139.56 84.9077C139.688 85.2571 139.883 85.5369 140.144 85.7472C140.408 85.9574 140.741 86.0625 141.141 86.0625ZM148.458 79.4062V78.2727H155.212V79.4062H152.489V87H151.177V79.4062H148.458ZM158.474 87.1321C157.83 87.1321 157.274 86.9943 156.808 86.7188C156.345 86.4403 155.987 86.0497 155.734 85.5469C155.484 85.0412 155.359 84.4489 155.359 83.7699C155.359 83.0994 155.484 82.5085 155.734 81.9972C155.987 81.4858 156.339 81.0866 156.791 80.7997C157.246 80.5128 157.777 80.3693 158.385 80.3693C158.754 80.3693 159.112 80.4304 159.459 80.5526C159.805 80.6747 160.116 80.8665 160.392 81.1278C160.668 81.3892 160.885 81.7287 161.044 82.1463C161.203 82.5611 161.283 83.0653 161.283 83.6591V84.1108H156.08V83.1562H160.034C160.034 82.821 159.966 82.5241 159.83 82.2656C159.693 82.0043 159.501 81.7983 159.254 81.6477C159.01 81.4972 158.723 81.4219 158.393 81.4219C158.036 81.4219 157.723 81.5099 157.456 81.6861C157.192 81.8594 156.987 82.0866 156.842 82.3679C156.7 82.6463 156.629 82.9489 156.629 83.2756V84.0213C156.629 84.4588 156.706 84.831 156.859 85.1378C157.016 85.4446 157.233 85.679 157.511 85.8409C157.79 86 158.115 86.0795 158.487 86.0795C158.729 86.0795 158.949 86.0455 159.148 85.9773C159.347 85.9062 159.518 85.8011 159.663 85.6619C159.808 85.5227 159.919 85.3509 159.996 85.1463L161.202 85.3636C161.105 85.7187 160.932 86.0298 160.682 86.2969C160.435 86.5611 160.124 86.767 159.749 86.9148C159.376 87.0597 158.952 87.1321 158.474 87.1321ZM164.601 87.1449C164.186 87.1449 163.811 87.0682 163.476 86.9148C163.141 86.7585 162.875 86.5327 162.679 86.2372C162.486 85.9418 162.39 85.5795 162.39 85.1506C162.39 84.7812 162.461 84.4773 162.603 84.2386C162.745 84 162.936 83.8111 163.178 83.6719C163.419 83.5327 163.689 83.4276 163.988 83.3565C164.286 83.2855 164.59 83.2315 164.9 83.1946C165.292 83.1491 165.61 83.1122 165.854 83.0838C166.098 83.0526 166.276 83.0028 166.387 82.9347C166.498 82.8665 166.553 82.7557 166.553 82.6023V82.5724C166.553 82.2003 166.448 81.9119 166.238 81.7074C166.03 81.5028 165.721 81.4006 165.309 81.4006C164.88 81.4006 164.542 81.4957 164.294 81.6861C164.05 81.8736 163.881 82.0824 163.787 82.3125L162.59 82.0398C162.732 81.642 162.939 81.321 163.212 81.0767C163.488 80.8295 163.804 80.6506 164.162 80.5398C164.52 80.4261 164.897 80.3693 165.292 80.3693C165.553 80.3693 165.83 80.4006 166.123 80.4631C166.418 80.5227 166.694 80.6335 166.949 80.7955C167.208 80.9574 167.419 81.1889 167.584 81.4901C167.749 81.7884 167.831 82.1761 167.831 82.6534V87H166.587V86.1051H166.536C166.453 86.2699 166.33 86.4318 166.165 86.5909C166 86.75 165.789 86.8821 165.53 86.9872C165.272 87.0923 164.962 87.1449 164.601 87.1449ZM164.878 86.1222C165.23 86.1222 165.532 86.0526 165.782 85.9134C166.034 85.7741 166.226 85.5923 166.357 85.3679C166.49 85.1406 166.557 84.8977 166.557 84.6392V83.7955C166.512 83.8409 166.424 83.8835 166.293 83.9233C166.165 83.9602 166.019 83.9929 165.854 84.0213C165.689 84.0469 165.529 84.071 165.373 84.0938C165.216 84.1136 165.086 84.1307 164.98 84.1449C164.733 84.1761 164.507 84.2287 164.303 84.3026C164.101 84.3764 163.939 84.483 163.817 84.6222C163.698 84.7585 163.638 84.9403 163.638 85.1676C163.638 85.483 163.755 85.7216 163.988 85.8835C164.221 86.0426 164.517 86.1222 164.878 86.1222ZM169.528 87V80.4545H170.751V81.5199H170.832C170.969 81.1591 171.192 80.8778 171.501 80.6761C171.811 80.4716 172.182 80.3693 172.614 80.3693C173.051 80.3693 173.418 80.4716 173.713 80.6761C174.011 80.8807 174.232 81.1619 174.374 81.5199H174.442C174.598 81.1705 174.847 80.892 175.188 80.6847C175.528 80.4744 175.935 80.3693 176.406 80.3693C177 80.3693 177.484 80.5554 177.859 80.9276C178.237 81.2997 178.426 81.8608 178.426 82.6108V87H177.152V82.7301C177.152 82.2869 177.031 81.9659 176.79 81.767C176.548 81.5682 176.26 81.4688 175.925 81.4688C175.51 81.4688 175.188 81.5966 174.957 81.8523C174.727 82.1051 174.612 82.4304 174.612 82.8281V87H173.342V82.6491C173.342 82.294 173.232 82.0085 173.01 81.7926C172.788 81.5767 172.5 81.4688 172.145 81.4688C171.903 81.4688 171.68 81.5327 171.476 81.6605C171.274 81.7855 171.111 81.9602 170.986 82.1847C170.864 82.4091 170.803 82.669 170.803 82.9645V87H169.528Z" fill="#9C9088"/>
</svg>
