<svg width="296" height="104" viewBox="0 0 296 104" fill="none" xmlns="http://www.w3.org/2000/svg">
<path d="M47.3346 13.8667L80.2923 32.9334V71.0667L47.3346 90.1334L14.377 71.0667V32.9334L47.3346 13.8667Z" stroke="#1C1916" stroke-linejoin="round"/>
<path opacity="0.5" d="M47.3347 29.4667L66.4154 40.7333V63.2667L47.3347 74.5333L28.2539 63.2667V40.7333L47.3347 29.4667Z" stroke="#1C1916" stroke-width="0.5" stroke-linejoin="round"/>
<path opacity="0.4" d="M47.3347 13.8667V29.4667" stroke="#1C1916" stroke-width="0.5"/>
<path opacity="0.4" d="M80.2924 32.9333L66.4155 40.7333" stroke="#1C1916" stroke-width="0.5"/>
<path opacity="0.4" d="M80.2924 71.0667L66.4155 63.2667" stroke="#1C1916" stroke-width="0.5"/>
<path opacity="0.4" d="M47.3347 90.1333V74.5333" stroke="#1C1916" stroke-width="0.5"/>
<path opacity="0.4" d="M14.377 71.0667L28.2539 63.2667" stroke="#1C1916" stroke-width="0.5"/>
<path opacity="0.4" d="M14.377 32.9333L28.2539 40.7333" stroke="#1C1916" stroke-width="0.5"/>
<path opacity="0.25" d="M47.3347 29.4667V52" stroke="#1C1916" stroke-width="0.4"/>
<path opacity="0.25" d="M66.4155 40.7334L47.3347 52.0001" stroke="#1C1916" stroke-width="0.4"/>
<path opacity="0.25" d="M66.4155 63.2667L47.3347 52" stroke="#1C1916" stroke-width="0.4"/>
<path opacity="0.25" d="M47.3347 74.5333V52" stroke="#1C1916" stroke-width="0.4"/>
<path opacity="0.25" d="M28.2539 63.2667L47.3347 52" stroke="#1C1916" stroke-width="0.4"/>
<path opacity="0.25" d="M28.2539 40.7334L47.3347 52.0001" stroke="#1C1916" stroke-width="0.4"/>
<path opacity="0.15" d="M47.3347 52V29.4667L66.4155 40.7333L47.3347 52Z" fill="#B86B2E"/>
<path opacity="0.08" d="M47.3347 52L66.4155 63.2667L47.3347 74.5333V52Z" fill="#B86B2E"/>
<path opacity="0.12" d="M47.3347 52L28.2539 40.7333L47.3347 29.4667V52Z" fill="#C9B99A"/>
<path opacity="0.07" d="M47.3347 52L28.2539 63.2667L47.3347 74.5333V52Z" fill="#C9B99A"/>
<path d="M47.3347 53.7334C48.2927 53.7334 49.0693 52.9574 49.0693 52.0001C49.0693 51.0428 48.2927 50.2667 47.3347 50.2667C46.3767 50.2667 45.6001 51.0428 45.6001 52.0001C45.6001 52.9574 46.3767 53.7334 47.3347 53.7334Z" fill="#B86B2E"/>
<path d="M107.896 71.328H103L115.672 36.624H120.904L133.624 71.328H128.68L125.56 62.688H110.968L107.896 71.328ZM117.688 44.112L112.408 58.608H124.168L118.84 44.112C118.6 43.44 118.36 42.624 118.264 42.096C118.168 42.576 117.928 43.392 117.688 44.112Z" fill="#1C1916"/>
<path d="M142.077 71.328H137.565V36H142.077V71.328Z" fill="#1C1916"/>
<path d="M147.183 59.616C147.183 52.272 151.839 47.184 158.703 47.184C164.607 47.184 168.735 50.544 169.551 55.776H165.039C164.271 52.8 161.871 51.216 158.847 51.216C154.575 51.216 151.647 54.48 151.647 59.568C151.647 64.608 154.383 67.872 158.655 67.872C161.871 67.872 164.271 66.192 165.087 63.408H169.599C168.687 68.496 164.319 71.904 158.655 71.904C151.743 71.904 147.183 67.008 147.183 59.616Z" fill="#1C1916"/>
<path d="M172.824 59.568C172.824 52.32 178.008 47.232 185.064 47.232C192.072 47.232 197.256 52.32 197.256 59.568C197.256 66.816 192.072 71.904 185.064 71.904C178.008 71.904 172.824 66.816 172.824 59.568ZM177.384 59.568C177.384 64.464 180.504 67.872 185.064 67.872C189.576 67.872 192.744 64.464 192.744 59.568C192.744 54.672 189.576 51.264 185.064 51.264C180.504 51.264 177.384 54.672 177.384 59.568Z" fill="#1C1916"/>
<path d="M221.354 56.592H207.723V71.328H203.019V36.624H223.947V40.944H207.723V52.32H221.354V56.592Z" fill="#B86B2E"/>
<path d="M231.083 42.288C229.451 42.288 228.107 40.944 228.107 39.312C228.107 37.632 229.451 36.336 231.083 36.336C232.715 36.336 234.059 37.632 234.059 39.312C234.059 40.944 232.715 42.288 231.083 42.288ZM228.876 71.328V47.856H233.387V71.328H228.876Z" fill="#B86B2E"/>
<path d="M246.562 71.328H242.05V51.648H237.442V47.856H242.05V40.512H246.562V47.856H251.17V51.648H246.562V71.328Z" fill="#B86B2E"/>
</svg>
